<svg xmlns="http://www.w3.org/2000/svg" data-name="Layer 1" viewBox="0 0 64 64" x="0px" y="0px"><title>MumbleRapper-JUL14</title><path d="M54.08,22.28a20.23,20.23,0,0,0-20.45-19H30.37a20.24,20.24,0,0,0-20.45,19c0,.36,0,.73,0,1.1V35.77a1,1,0,0,0,1.79.74l.8-.8,1.44,5.12a18138.48,18138.48,0,0,1,.11.23.9.9,0,0,0,.15.18l.07.07a.92.92,0,0,0,.29.15h0a.92.92,0,0,0,.25,0,.89.89,0,0,0,.25,0h0a.92.92,0,0,0,.3-.15l.05-.05a.71.71,0,0,0,.21-.3.87.87,0,0,0,.06-.12l.86-3,1.3,10.63a6.38,6.38,0,0,0,1.58,3.66l6,6.76a5.6,5.6,0,0,0,4.2,1.89H34.4a5.61,5.61,0,0,0,4.2-1.89l6-6.76a6.36,6.36,0,0,0,1.58-3.63l1.29-10.65.86,3a.89.89,0,0,0,.06.12.71.71,0,0,0,.21.3l.05.05a.92.92,0,0,0,.3.15h0a.89.89,0,0,0,.25,0,.92.92,0,0,0,.25,0h0a.92.92,0,0,0,.29-.15l.07-.07a.7.7,0,0,0,.2-.3.87.87,0,0,0,.05-.11l1.44-5.12.8.8a1,1,0,0,0,1.79-.74V23.38C54.1,23,54.1,22.65,54.08,22.28ZM52.26,33.87l-.21-.21a1.23,1.23,0,0,0-.85-.35l.36-6.25a.61.61,0,0,0-.58-.65.6.6,0,0,0-.65.58l-.45,7.63-.72,2.57-.78-2.76L48,23.72a.62.62,0,0,0-.63-.59.61.61,0,0,0-.59.63l.33,9.51a1.23,1.23,0,0,0-.62.21.9.9,0,0,0-.17.11l0,0-.25.25V21.65a.92.92,0,1,0-1.84,0V35.78a1,1,0,0,0,1.52.94l-1.4,11.54a4.54,4.54,0,0,1-1.13,2.61l-6,6.76A3.77,3.77,0,0,1,34.4,58.9H29.61a3.76,3.76,0,0,1-2.82-1.27l-6-6.76a4.58,4.58,0,0,1-1.13-2.63l-1.4-11.51a1,1,0,0,0,1.52-.94V27.6a.92.92,0,0,0-1.84,0v6.27l-.25-.25,0,0a.89.89,0,0,0-.17-.11,1.23,1.23,0,0,0-.62-.21l.34-9.51a.61.61,0,0,0-.59-.63.62.62,0,0,0-.63.59l-.39,10.7-.79,2.77-.72-2.57L13.66,27a.58.58,0,0,0-.65-.58.61.61,0,0,0-.58.65l.35,6.24a1.23,1.23,0,0,0-.85.36l-.21.21V23.38q0-.51,0-1A18.4,18.4,0,0,1,30.37,5.1h3.26A18.4,18.4,0,0,1,52.24,22.37q0,.5,0,1Z"></path><path d="M25.51,19.11a.61.61,0,0,0,.61-.61A18.67,18.67,0,0,1,29.78,7.07a.61.61,0,0,0-.93-.8,19.54,19.54,0,0,0-4,12.24A.61.61,0,0,0,25.51,19.11Z"></path><circle cx="25.51" cy="20.45" r="0.78"></circle><path d="M23.26,8.82a.62.62,0,0,0-.84-.23c-6.6,3.77-8.15,9.37-8.21,9.61a.61.61,0,0,0,.43.75l.16,0a.62.62,0,0,0,.59-.46A16.32,16.32,0,0,1,23,9.66.61.61,0,0,0,23.26,8.82Z"></path><circle cx="14.3" cy="20.03" r="0.73"></circle><path d="M42.14,10.93a.61.61,0,1,0-.83.91,15.55,15.55,0,0,1,3.18,4.22.61.61,0,0,0,.56.36.63.63,0,0,0,.25-.05.61.61,0,0,0,.31-.81A16.49,16.49,0,0,0,42.14,10.93Z"></path><circle cx="40.4" cy="10" r="0.66"></circle><path d="M26.53,23.75a.92.92,0,0,0-1.84,0V38.63l-1.75-1.45V23.75a.92.92,0,0,0-1.84,0v13.5a1.68,1.68,0,0,0,.61,1.3l2.07,1.71a1.67,1.67,0,0,0,1.07.39,1.7,1.7,0,0,0,.72-.16,1.67,1.67,0,0,0,1-1.53Z"></path><path d="M41.8,17.62a.92.92,0,0,0-.92.92V38.63l-1.75-1.45V23.75a.92.92,0,0,0-1.84,0v2.36H32.61V16.72a.61.61,0,0,0-1.23,0v9.39H29.17a9.73,9.73,0,0,1,.08-2.2.92.92,0,0,0-1.81-.33C27,26,27.32,31,31.64,32.83a.9.9,0,0,0,.36.07.92.92,0,0,0,.36-1.77,5,5,0,0,1-2.83-3.19h7.76v9.3a1.68,1.68,0,0,0,.61,1.3L40,40.25a1.67,1.67,0,0,0,1.07.39,1.7,1.7,0,0,0,.72-.16,1.67,1.67,0,0,0,1-1.53V18.54A.92.92,0,0,0,41.8,17.62Z"></path><circle cx="32" cy="14.38" r="0.78"></circle><path d="M37.67,50.8l-3.58-1-.13,0a2.51,2.51,0,0,0-1.3.17l-.31.12a.71.71,0,0,1-.51,0l-.4-.14a2.53,2.53,0,0,0-1.57,0l-3.12.9a.92.92,0,0,0,.26,1.8,1,1,0,0,0,.26,0l3.12-.9a.7.7,0,0,1,.44,0l.4.14a2.55,2.55,0,0,0,1.82,0l.31-.12a.79.79,0,0,1,.31-.05l3.5,1a.92.92,0,0,0,.49-1.77Z"></path><path d="M35,52.71a10,10,0,0,1-5.4,0,.92.92,0,0,0-.61,1.74,10.41,10.41,0,0,0,3.22.46,12.36,12.36,0,0,0,3.27-.44A.92.92,0,1,0,35,52.71Z"></path><path d="M35.56,45.3h.12a.92.92,0,0,0,.11-1.83l-2-.25a.92.92,0,0,0-.23,1.83Z"></path><path d="M28.89,45.3l2-.25a.92.92,0,1,0-.23-1.83l-2,.25a.92.92,0,0,0,.11,1.83Z"></path></svg>